<svg xmlns="http://www.w3.org/2000/svg" viewBox="0 0 24 24" fill="none">
  <path
    d="M12 11.2969C11.0947 9.41786 8.62812 5.9163 6.33531 4.18911C4.68094 2.94318 2 1.9788 2 5.04693C2 5.65943 2.35 10.1944 2.55563 10.9307C3.26938 13.4901 5.87094 14.1429 8.185 13.7479C4.14 14.4385 3.11125 16.726 5.33344 19.0135C9.55375 23.3582 11.3994 17.9235 11.8719 16.531C12.0004 16.1531 11.9996 16.1531 12.1281 16.531C12.6006 17.9235 14.4463 23.3582 18.6666 19.0135C20.8888 16.726 19.86 14.4385 15.815 13.7479C18.1291 14.1429 20.7306 13.4901 21.4444 10.9307C21.65 10.1944 22 5.65943 22 5.04693C22 1.9788 19.3194 2.94318 17.6647 4.18911C15.3719 5.9163 12.9053 9.41786 12 11.2969Z"
    stroke-linejoin="round"
    stroke-linecap="round"
    stroke="currentColor"
    stroke-width="2"
  />
</svg>
