<svg xmlns="http://www.w3.org/2000/svg" viewBox="0 0 24 24" fill="none">
  <path
    d="M17.9904 11H19C20.6569 11 22 12.3431 22 14C22 15.6569 20.6569 17 19 17H16.5127M17.9904 11C18 11.1571 18 11.3509 18 11.6V12.3529C18 14.0859 17.449 15.6901 16.5127 17M17.9904 11C17.9784 10.8039 17.9515 10.6647 17.891 10.546C17.7951 10.3578 17.6422 10.2048 17.454 10.109C17.2401 9.99998 16.9601 9.99998 16.4 9.99998H3.6C3.03995 9.99998 2.75992 9.99998 2.54601 10.109C2.35785 10.2048 2.20487 10.3578 2.10899 10.546C2 10.7599 2 11.0399 2 11.6V12.3529C2 16.7712 5.58172 20.3529 10 20.3529C12.6854 20.3529 15.0617 19.0298 16.5127 17M6 6V5.93426C6 5.55883 6.18763 5.20825 6.5 5C6.81237 4.79175 7 4.44117 7 4.06574V4M10 6V5.93426C10 5.55883 10.1876 5.20825 10.5 5C10.8124 4.79175 11 4.44117 11 4.06574V4M14 6V5.93426C14 5.55883 14.1876 5.20825 14.5 5C14.8124 4.79175 15 4.44117 15 4.06574V4"
    stroke-linejoin="round"
    stroke-linecap="round"
    stroke="currentColor"
    stroke-width="2"
  />
</svg>
