<svg xmlns="http://www.w3.org/2000/svg" viewBox="0 0 24 24" fill="none">
  <path
    d="M14.5964 8C13.3362 8 12.7062 8 12.2249 8.28027C11.8015 8.5268 11.4573 8.92018 11.2416 9.404C10.9964 9.9541 10.9964 10.6741 10.9964 12.1143V13M10.9964 13V20.999M10.9964 13H8.74641M10.9964 13H14.7464M10.9964 20.999V21M10.9964 20.999C11.3072 21 11.6408 21 12 21C14.5136 21 15.7704 21 16.7808 20.6465C18.5904 20.0132 20.0132 18.5904 20.6465 16.7808C21 15.7704 21 14.5136 21 12C21 9.48639 21 8.22958 20.6465 7.21924C20.0132 5.40959 18.5904 3.98676 16.7808 3.35354C15.7704 3 14.5136 3 12 3C9.48639 3 8.22958 3 7.21924 3.35354C5.40959 3.98676 3.98676 5.40959 3.35354 7.21924C3 8.22958 3 9.48639 3 12C3 14.5136 3 15.7704 3.35354 16.7808C3.98676 18.5904 5.40959 20.0132 7.21924 20.6465C8.08519 20.9495 9.1322 20.9928 10.9964 20.999Z"
    stroke-linejoin="round"
    stroke-linecap="round"
    stroke="currentColor"
    stroke-width="2"
  />
</svg>
