<svg xmlns="http://www.w3.org/2000/svg" viewBox="0 0 24 24" fill="none">
  <path
    d="M2.84998 12.0001H21.15M2.84998 12.0001C2.84998 17.0535 6.94657 21.1501 12 21.1501M2.84998 12.0001C2.84998 6.94669 6.94657 2.8501 12 2.8501M21.15 12.0001C21.15 17.0535 17.0534 21.1501 12 21.1501M21.15 12.0001C21.15 6.94669 17.0534 2.8501 12 2.8501M12 2.8501C14.2886 5.35569 15.5893 8.60731 15.66 12.0001C15.5893 15.3929 14.2886 18.6445 12 21.1501M12 2.8501C9.7113 5.35569 8.41066 8.60731 8.33998 12.0001C8.41066 15.3929 9.7113 18.6445 12 21.1501"
    stroke-linejoin="round"
    stroke-linecap="round"
    stroke="currentColor"
    stroke-width="2"
  />
</svg>
