<svg xmlns="http://www.w3.org/2000/svg" viewBox="0 0 24 24" fill="none">
  <path
    d="M6.2 3C5.0799 3 4.51984 3 4.09202 3.21799C3.7157 3.40973 3.40973 3.71569 3.21799 4.09202C3 4.51984 3 5.07989 3 6.2L3 6.8C3 7.9201 3 8.48016 3.21799 8.90798C3.40973 9.28431 3.7157 9.59027 4.09202 9.78201C4.51984 10 5.0799 10 6.2 10L17.8 10C18.9201 10 19.4802 10 19.908 9.78201C20.2843 9.59027 20.5903 9.28431 20.782 8.90798C21 8.48016 21 7.92011 21 6.8V6.2C21 5.0799 21 4.51984 20.782 4.09202C20.5903 3.7157 20.2843 3.40973 19.908 3.21799C19.4802 3 18.9201 3 17.8 3L6.2 3Z"
    stroke-linejoin="round"
    stroke-linecap="round"
    stroke="currentColor"
    stroke-width="2"
  />
  <path
    d="M5.5 14C5.03535 14 4.80302 14 4.60982 14.0384C3.81644 14.1962 3.19624 14.8164 3.03843 15.6098C3 15.803 3 16.0353 3 16.5L3 18.5C3 18.9647 3 19.197 3.03843 19.3902C3.19624 20.1836 3.81644 20.8038 4.60982 20.9616C4.80302 21 5.03534 21 5.5 21C5.96466 21 6.19698 21 6.39018 20.9616C7.18356 20.8038 7.80376 20.1836 7.96157 19.3902C8 19.197 8 18.9647 8 18.5V16.5C8 16.0353 8 15.803 7.96157 15.6098C7.80376 14.8164 7.18356 14.1962 6.39018 14.0384C6.19698 14 5.96466 14 5.5 14Z"
    stroke-linejoin="round"
    stroke-linecap="round"
    stroke="currentColor"
    stroke-width="2"
  />
  <path
    d="M15.2 14C14.0799 14 13.5198 14 13.092 14.218C12.7157 14.4097 12.4097 14.7157 12.218 15.092C12 15.5198 12 16.0799 12 17.2V17.8C12 18.9201 12 19.4802 12.218 19.908C12.4097 20.2843 12.7157 20.5903 13.092 20.782C13.5198 21 14.0799 21 15.2 21H17.8C18.9201 21 19.4802 21 19.908 20.782C20.2843 20.5903 20.5903 20.2843 20.782 19.908C21 19.4802 21 18.9201 21 17.8V17.2C21 16.0799 21 15.5198 20.782 15.092C20.5903 14.7157 20.2843 14.4097 19.908 14.218C19.4802 14 18.9201 14 17.8 14H15.2Z"
    stroke-linejoin="round"
    stroke-linecap="round"
    stroke="currentColor"
    stroke-width="2"
  />
</svg>
