<svg xmlns="http://www.w3.org/2000/svg" viewBox="0 0 24 24" fill="none">
  <path
    d="M17 6.99945H17.01M3 12C3 9.48639 3 8.22958 3.35354 7.21924C3.98676 5.40959 5.40959 3.98676 7.21924 3.35354C8.22958 3 9.48639 3 12 3C14.5136 3 15.7704 3 16.7808 3.35354C18.5904 3.98676 20.0132 5.40959 20.6465 7.21924C21 8.22958 21 9.48639 21 12C21 14.5136 21 15.7704 20.6465 16.7808C20.0132 18.5904 18.5904 20.0132 16.7808 20.6465C15.7704 21 14.5136 21 12 21C9.48639 21 8.22958 21 7.21924 20.6465C5.40959 20.0132 3.98676 18.5904 3.35354 16.7808C3 15.7704 3 14.5136 3 12ZM15.7775 11.4398C15.8953 12.2344 15.7596 13.0458 15.3896 13.7588C15.0197 14.4718 14.4344 15.0499 13.7169 15.4111C12.9994 15.7722 12.1863 15.8979 11.3933 15.7703C10.6003 15.6427 9.86768 15.2683 9.29971 14.7003C8.73174 14.1323 8.35732 13.3997 8.22972 12.6067C8.10211 11.8137 8.22781 11.0006 8.58893 10.2831C8.95005 9.56564 9.52822 8.98031 10.2412 8.61036C10.9542 8.24042 11.7656 8.1047 12.5601 8.22253C13.3706 8.3427 14.1209 8.72036 14.7003 9.29971C15.2796 9.87907 15.6573 10.6294 15.7775 11.4398Z"
    stroke-linejoin="round"
    stroke-linecap="round"
    stroke="currentColor"
    stroke-width="2"
  />
</svg>
