<svg xmlns="http://www.w3.org/2000/svg" viewBox="0 0 24 24" fill="none">
  <path
    d="M14.1249 17.9657C14.3879 17.959 14.6007 17.8845 14.7497 17.7355C15.5308 16.9545 14.2645 14.4218 11.9213 12.0787C9.57817 9.73552 7.04551 8.46919 6.26447 9.25024C6.11545 9.39926 6.04096 9.61204 6.03426 9.8751M14.1249 17.9657C13.0092 17.9942 10.989 16.8032 9.09289 14.9071C7.1968 13.011 6.00583 10.9908 6.03426 9.8751M14.1249 17.9657C13 19 4.32338 22.5935 2.88128 21.087C1.43424 19.5753 5.00001 11 6.03426 9.8751M5.99993 5H6.00993M13.9999 4H14.0099M9.46724 2C10.7154 3.53504 11.1285 5.61426 10.5 7.5M16.9999 15C18.9659 14.7192 20.9036 15.1728 21.9999 17M22.0007 4.34919C18.6216 5.36326 15.6459 7.13867 13.4999 9.99997M15.9999 12H16.0099M17.9999 19H18.0099M20.9999 10H21.0099"
    stroke-linejoin="round"
    stroke-linecap="round"
    stroke="currentColor"
    stroke-width="2"
  />
</svg>
