<svg xmlns="http://www.w3.org/2000/svg" viewBox="0 0 24 24" fill="none">
  <path
    d="M18.5643 9.9806C19.0007 9.33755 19.7378 8.91505 20.5735 8.91505C21.9136 8.91505 23 10.0014 23 11.3415C23 12.5624 22.0984 13.5726 20.9248 13.7428C20.9538 13.9547 20.9687 14.1696 20.9687 14.387C20.9687 17.9585 16.9533 20.8537 12 20.8537C7.04672 20.8537 3.03128 17.9585 3.03128 14.387C3.03128 14.1695 3.04617 13.9546 3.07526 13.7426C1.90159 13.5724 1 12.5622 1 11.3413C1 11.188 1.01422 11.038 1.04141 10.8926C1.25191 9.76687 2.2397 8.91486 3.42648 8.91486C4.26226 8.91486 4.99934 9.33741 5.43576 9.98054M18.5643 9.9806C16.9294 8.71496 14.5988 7.9227 12.0116 7.92035M18.5643 9.9806C18.7192 10.1005 18.8678 10.2246 19.0098 10.3527M5.43576 9.98054C7.07312 8.71304 9.40817 7.92034 12 7.92034C12.0039 7.92034 12.0077 7.92034 12.0116 7.92035M5.43576 9.98054C5.28086 10.1004 5.1322 10.2246 4.99016 10.3527M12.0116 7.92035C11.4421 5.47894 13.4932 2.96107 16.1857 3.30824M16.1857 3.30824C16.1853 3.32146 16.1851 3.33473 16.1851 3.34805C16.1851 4.09255 16.7886 4.69609 17.5331 4.69609C18.2777 4.69609 18.8812 4.09255 18.8812 3.34805C18.8812 2.60354 18.2777 2 17.5331 2C16.8738 2 16.3251 2.47334 16.2081 3.09873C16.1954 3.1669 16.1878 3.23688 16.1857 3.30824ZM14.4265 17.006C12.9876 18.4439 10.8729 18.4439 9.57352 17.006H14.4265ZM6.60933 13.6425C6.64067 12.9631 7.09198 12.4416 7.61662 12.4416C8.14127 12.4416 8.54243 12.9925 8.51109 13.672C8.47975 14.3515 8.08799 14.5984 7.56272 14.5984C7.03745 14.5984 6.57799 14.322 6.60933 13.6425ZM17.3907 13.6425C17.3593 12.9631 16.908 12.4416 16.3834 12.4416C15.8587 12.4416 15.4576 12.9925 15.4889 13.672C15.5202 14.3515 15.912 14.5984 16.4373 14.5984C16.9626 14.5984 17.422 14.322 17.3907 13.6425Z"
    stroke-linejoin="round"
    stroke-linecap="round"
    stroke="currentColor"
    stroke-width="2"
  />
</svg>
