<svg xmlns="http://www.w3.org/2000/svg" viewBox="0 0 24 24" fill="none">
  <path
    d="M15.0493 15.8756C13.7987 15.3131 12.4116 15.0001 10.9514 15.0001C9.92403 15.0001 8.93287 15.155 7.99997 15.4428M16.2461 13.1237C14.6288 12.4016 12.837 12.0001 10.9514 12.0001C9.7564 12.0001 8.59907 12.1614 7.49997 12.4633M17.5 10.3973C15.5011 9.49953 13.2846 9.00012 10.9514 9.00012C9.58767 9.00012 8.26381 9.17073 6.99997 9.49177M12 21.1501C6.94657 21.1501 2.84998 17.0535 2.84998 12.0001C2.84998 6.94669 6.94657 2.8501 12 2.8501C17.0534 2.8501 21.15 6.94669 21.15 12.0001C21.15 17.0535 17.0534 21.1501 12 21.1501Z"
    stroke-linejoin="round"
    stroke-linecap="round"
    stroke="currentColor"
    stroke-width="2"
  />
</svg>
