<svg xmlns="http://www.w3.org/2000/svg" viewBox="0 0 24 24" fill="none">
  <path
    d="M17 21L20.2311 19.3845C20.8732 19.0634 21.1943 18.9029 21.4288 18.6634C21.6363 18.4516 21.794 18.1963 21.8907 17.9161C22 17.5992 22 17.2402 22 16.5223V7.47771C22 6.75979 22 6.40084 21.8907 6.08393C21.794 5.80368 21.6363 5.54842 21.4288 5.33663C21.1943 5.09714 20.8732 4.9366 20.2311 4.61554L17 3M17 21V16M17 21L9.21127 13.9901M17 3V7.99704M17 3L9.21198 10.0092M17 7.99704V16M17 7.99704L11.7988 11.9991M17 16L11.7988 11.9991M11.7988 11.9991L9.21198 10.0092M9.21198 10.0092L4 6L2 7.5L7 12M7 12L2 16.5L4 18L9.21127 13.9901M7 12L9.21127 13.9901"
    stroke-linejoin="round"
    stroke-linecap="round"
    stroke="currentColor"
    stroke-width="2"
  />
</svg>
