<svg xmlns="http://www.w3.org/2000/svg" viewBox="0 0 24 24" fill="none">
  <path
    d="M8.70369 12.487C8.08497 11.4385 7.67815 10.2163 7.5175 8.85458C7.50389 8.73926 7.49709 8.6816 7.50118 8.58982C7.52326 8.09491 7.95989 7.60362 8.44869 7.52369C8.647 7.49126 8.89219 7.49616 9.09387 7.51435C9.57719 7.55794 10.0005 7.85631 10.2041 8.29692C10.2297 8.35237 10.2523 8.41555 10.2974 8.5419C10.3904 8.80241 10.4369 8.93266 10.468 9.05402C10.7153 10.0193 10.414 11.0426 9.68319 11.7198C9.59132 11.805 9.48165 11.8892 9.26234 12.0578L8.70369 12.487ZM8.70369 12.487C9.36206 13.6026 10.2604 14.5215 11.3573 15.2023M11.3573 15.2023C12.4394 15.8739 13.7147 16.3138 15.1437 16.4825C15.259 16.4961 15.3167 16.5029 15.4085 16.4988C15.9033 16.4767 16.3944 16.04 16.4744 15.5511C16.5097 15.3346 16.5055 15.0857 16.4798 14.8681C16.4259 14.4129 16.146 14.0156 15.7355 13.8117C15.6638 13.7761 15.5805 13.7463 15.4141 13.6869C15.0834 13.5688 14.9181 13.5097 14.7622 13.474C13.8956 13.2753 12.9867 13.5135 12.329 14.1119C12.2107 14.2195 12.0962 14.3514 11.8671 14.6152L11.3573 15.2023ZM12 21C16.9706 21 21 16.9706 21 12C21 7.02944 16.9706 3 12 3C7.02944 3 3 7.02944 3 12C3 13.1079 3.2002 14.1691 3.56641 15.1494C3.68572 15.4687 3.74537 15.6284 3.76687 15.7456C3.78871 15.8646 3.79357 15.9404 3.78711 16.0612C3.78076 16.1802 3.74988 16.3124 3.68813 16.5768L3.34063 18.0647C3.07865 19.1864 2.94767 19.7473 3.1048 20.1413C3.24202 20.4854 3.5146 20.758 3.85869 20.8952C4.25271 21.0523 4.81358 20.9213 5.93527 20.6594L7.42318 20.3119C7.6876 20.2501 7.81981 20.2192 7.93881 20.2129C8.05963 20.2064 8.13539 20.2113 8.2544 20.2331C8.37161 20.2546 8.53131 20.3143 8.85064 20.4336C9.83086 20.7998 10.8921 21 12 21Z"
    stroke-linejoin="round"
    stroke-linecap="round"
    stroke="currentColor"
    stroke-width="2"
  />
</svg>
