<svg xmlns="http://www.w3.org/2000/svg" viewBox="0 0 24 24" fill="none">
  <path
    d="M19.7994 3L13.5823 10.1053M4.04941 21L10.681 13.4211M13.5823 10.1053L9.26678 4.01276C9.00411 3.64193 8.87277 3.45652 8.70303 3.32255C8.55272 3.20392 8.38109 3.11516 8.19741 3.06108C7.98997 3 7.76275 3 7.30832 3H5.61995C4.86963 3 4.49447 3 4.29221 3.15573C4.11609 3.29132 4.00919 3.49805 4.00034 3.72013C3.99018 3.9752 4.20702 4.28134 4.64072 4.89362L10.681 13.4211M13.5823 10.1053L19.9581 19.1064C20.3918 19.7187 20.6086 20.0248 20.5985 20.2799C20.5896 20.502 20.4827 20.7087 20.3066 20.8443C20.1043 21 19.7292 21 18.9789 21H17.2905C16.8361 21 16.6088 21 16.4014 20.9389C16.2177 20.8848 16.0461 20.7961 15.8958 20.6775C15.726 20.5435 15.5947 20.3581 15.332 19.9872L10.681 13.4211"
    stroke-linejoin="round"
    stroke-linecap="round"
    stroke="currentColor"
    stroke-width="2"
  />
</svg>
