<svg xmlns="http://www.w3.org/2000/svg" viewBox="0 0 24 24" fill="none">
  <path
    d="M9 9L15 9M9 12H13M9 15H11.1899M20.2914 16L20.7851 15.074C21.3839 13.951 21.6833 13.3895 21.7976 12.7977C21.8987 12.2739 21.8941 11.7352 21.7839 11.2132C21.7689 11.142 21.7512 11.0713 21.7305 11C21.5803 10.4811 21.2758 9.9329 20.7323 8.95471L19.253 6.29189C18.5874 5.09379 18.2546 4.49474 17.7812 4.05853C17.3625 3.67263 16.8661 3.38059 16.3254 3.20194C15.7142 3 15.029 3 13.6584 3L11.1899 3C9.81937 3 9.13409 3 8.52289 3.20194C7.98219 3.38059 7.48586 3.67263 7.0671 4.05853C6.59375 4.49474 6.26095 5.09379 5.59534 6.29189L4.15089 8.89189C3.52066 10.0263 3.20555 10.5935 3.08201 11.1942C2.97266 11.7258 2.97266 12.2742 3.08201 12.8058C3.20555 13.4065 3.52066 13.9737 4.1509 15.1081L5.59534 17.7081C6.26095 18.9062 6.59375 19.5053 7.0671 19.9415C7.48586 20.3274 7.98219 20.6194 8.52289 20.7981C9.13409 21 9.81937 21 11.1899 21H13.7166C15.067 21 15.7423 21 16.3463 20.8031C16.8808 20.629 17.3726 20.3441 17.7896 19.9671C18.2608 19.541 18.5967 18.9552 19.2685 17.7837L20.2914 16Z"
    vector-effect="non-scaling-stroke"
    stroke-linejoin="round"
    stroke-linecap="round"
    stroke="currentColor"
    stroke-width="5"
  />
</svg>
